<svg xmlns="http://www.w3.org/2000/svg" width="337" height="162" viewBox="0 0 337 162">
  <style>
    path { fill: #06132F; }
    @media (prefers-color-scheme: dark) {
      path { fill: #ffffff; }
    }
  </style>
  <path d="M 293 86 L 282 91 L 278 95 L 277 95 L 276 97 L 275 96 L 273 98 L 274 100 L 272 103 L 271 109 L 270 110 L 270 117 L 271 118 L 271 122 L 270 124 L 271 122 L 275 130 L 281 136 L 282 136 L 286 139 L 288 139 L 292 141 L 304 141 L 305 142 L 307 142 L 305 142 L 304 141 L 316 135 L 322 127 L 323 123 L 324 122 L 325 124 L 324 122 L 324 118 L 325 117 L 325 110 L 324 109 L 324 106 L 325 105 L 325 103 L 325 105 L 324 106 L 323 105 L 323 103 L 321 99 L 313 91 L 312 91 L 310 89 L 306 87 L 304 87 L 303 86 Z M 273 98 L 274 97 L 275 98 L 274 99 Z M 274 97 L 275 96 L 276 97 L 275 98 Z M 276 27 L 274 23 L 271 20 L 271 19 L 267 15 L 261 12 L 258 12 L 257 11 L 252 11 L 251 10 L 246 10 L 243 12 L 239 13 L 236 16 L 235 16 L 232 19 L 231 19 L 231 20 L 216 35 L 215 35 L 214 37 L 213 36 L 214 37 L 205 46 L 204 45 L 203 46 L 204 47 L 195 56 L 194 58 L 193 58 L 189 62 L 188 61 L 189 62 L 179 72 L 179 73 L 167 84 L 167 86 L 162 92 L 156 95 L 150 96 L 149 95 L 146 95 L 145 94 L 141 93 L 140 92 L 142 91 L 140 92 L 137 89 L 138 87 L 137 86 L 136 87 L 135 86 L 136 84 L 136 74 L 135 73 L 135 71 L 136 70 L 137 71 L 139 70 L 139 68 L 143 64 L 145 63 L 143 62 L 148 57 L 149 58 L 150 57 L 149 55 L 151 52 L 153 53 L 153 52 L 152 53 L 151 52 L 152 48 L 153 47 L 153 44 L 154 43 L 155 44 L 155 47 L 157 46 L 157 44 L 156 43 L 156 39 L 156 42 L 155 43 L 154 42 L 154 34 L 155 33 L 156 34 L 157 31 L 155 31 L 155 33 L 154 34 L 153 33 L 153 30 L 152 29 L 153 25 L 152 27 L 149 23 L 150 21 L 144 15 L 141 15 L 139 13 L 137 13 L 134 11 L 131 11 L 130 10 L 121 10 L 120 11 L 113 12 L 106 16 L 105 15 L 106 16 L 104 18 L 103 17 L 103 19 L 96 26 L 94 25 L 95 27 L 93 29 L 92 28 L 87 33 L 86 33 L 87 35 L 81 41 L 80 40 L 71 49 L 72 50 L 70 52 L 69 51 L 68 52 L 69 53 L 67 55 L 66 54 L 67 55 L 65 57 L 64 56 L 63 57 L 64 58 L 62 60 L 61 59 L 60 60 L 61 61 L 59 63 L 58 62 L 54 66 L 55 67 L 53 69 L 52 68 L 53 69 L 47 75 L 46 74 L 47 75 L 39 83 L 38 82 L 36 84 L 37 85 L 35 87 L 35 88 L 27 96 L 26 95 L 21 100 L 20 99 L 20 101 L 15 106 L 16 108 L 15 109 L 15 111 L 13 115 L 13 120 L 12 121 L 12 123 L 13 124 L 13 128 L 14 130 L 13 131 L 12 130 L 12 131 L 13 132 L 14 131 L 15 132 L 14 134 L 15 135 L 16 134 L 17 135 L 17 136 L 19 138 L 18 139 L 21 143 L 23 144 L 25 143 L 28 145 L 26 146 L 30 145 L 34 147 L 33 148 L 31 148 L 34 148 L 35 147 L 43 147 L 44 148 L 46 148 L 44 148 L 43 147 L 44 146 L 49 145 L 52 143 L 54 144 L 56 142 L 57 142 L 55 141 L 64 132 L 65 134 L 68 131 L 67 129 L 71 125 L 72 126 L 74 125 L 73 123 L 81 115 L 82 117 L 83 116 L 81 115 L 86 110 L 87 111 L 90 108 L 91 108 L 89 107 L 98 98 L 99 100 L 100 99 L 98 98 L 103 93 L 104 94 L 106 93 L 106 92 L 108 91 L 110 88 L 112 88 L 113 89 L 122 89 L 113 89 L 112 88 L 113 87 L 117 87 L 118 86 L 120 86 L 121 87 L 124 87 L 129 90 L 127 91 L 130 90 L 134 94 L 134 95 L 137 99 L 138 107 L 137 108 L 137 111 L 133 119 L 133 128 L 134 129 L 135 134 L 138 138 L 137 140 L 138 139 L 144 145 L 152 149 L 153 150 L 152 151 L 153 150 L 155 150 L 156 151 L 154 152 L 156 152 L 157 151 L 169 151 L 170 150 L 172 150 L 180 146 L 257 68 L 258 69 L 257 68 L 265 60 L 266 61 L 265 60 L 272 53 L 277 43 L 277 30 L 276 29 Z M 53 143 L 54 142 L 55 143 L 54 144 Z M 22 143 L 23 142 L 24 143 L 23 144 Z M 54 142 L 55 141 L 56 142 L 55 143 Z M 21 142 L 22 141 L 23 142 L 22 143 Z M 20 141 L 21 140 L 22 141 L 21 142 Z M 19 140 L 20 139 L 21 140 L 20 141 Z M 18 139 L 19 138 L 20 139 L 19 140 Z M 14 134 L 15 133 L 16 134 L 15 135 Z M 64 132 L 65 131 L 66 132 L 65 133 Z M 65 131 L 66 130 L 67 131 L 66 132 Z M 66 130 L 67 129 L 68 130 L 67 131 Z M 71 125 L 72 124 L 73 125 L 72 126 Z M 72 124 L 73 123 L 74 124 L 73 125 Z M 86 110 L 87 109 L 88 110 L 87 111 Z M 87 109 L 88 108 L 89 109 L 88 110 Z M 88 108 L 89 107 L 90 108 L 89 109 Z M 15 106 L 16 105 L 17 106 L 16 107 Z M 16 105 L 17 104 L 18 105 L 17 106 Z M 19 102 L 20 101 L 21 102 L 20 103 Z M 20 101 L 21 100 L 22 101 L 21 102 Z M 21 100 L 22 99 L 23 100 L 22 101 Z M 22 99 L 23 98 L 24 99 L 23 100 Z M 23 98 L 24 97 L 25 98 L 24 99 Z M 24 97 L 25 96 L 26 97 L 25 98 Z M 25 96 L 26 95 L 27 96 L 26 97 Z M 103 93 L 104 92 L 105 93 L 104 94 Z M 104 92 L 105 91 L 106 92 L 105 93 Z M 105 91 L 106 90 L 107 91 L 106 92 Z M 107 90 L 108 89 L 109 90 L 108 91 Z M 136 87 L 137 86 L 138 87 L 137 88 Z M 37 83 L 38 82 L 39 83 L 38 84 Z M 135 73 L 136 74 L 136 83 L 135 84 L 134 83 L 134 74 Z M 136 70 L 137 69 L 138 70 L 137 71 Z M 137 68 L 138 67 L 139 68 L 138 69 Z M 138 67 L 139 66 L 140 67 L 139 68 Z M 139 66 L 140 65 L 141 66 L 140 67 Z M 54 66 L 55 65 L 56 66 L 55 67 Z M 140 65 L 141 64 L 142 65 L 141 66 Z M 55 65 L 56 64 L 57 65 L 56 66 Z M 141 64 L 142 63 L 143 64 L 142 65 Z M 56 64 L 57 63 L 58 64 L 57 65 Z M 142 63 L 143 62 L 144 63 L 143 64 Z M 57 63 L 58 62 L 59 63 L 58 64 Z M 60 60 L 61 59 L 62 60 L 61 61 Z M 148 57 L 149 56 L 150 57 L 149 58 Z M 63 57 L 64 56 L 65 57 L 64 58 Z M 68 52 L 69 51 L 70 52 L 69 53 Z M 71 49 L 72 48 L 73 49 L 72 50 Z M 72 48 L 73 47 L 74 48 L 73 49 Z M 73 47 L 74 46 L 75 47 L 74 48 Z M 203 46 L 204 45 L 205 46 L 204 47 Z M 74 46 L 75 45 L 76 46 L 75 47 Z M 75 45 L 76 44 L 77 45 L 76 46 Z M 76 44 L 77 43 L 78 44 L 77 45 Z M 77 43 L 78 42 L 79 43 L 78 44 Z M 78 42 L 79 41 L 80 42 L 79 43 Z M 79 41 L 80 40 L 81 41 L 80 42 Z M 86 34 L 87 33 L 88 34 L 87 35 Z M 87 33 L 88 32 L 89 33 L 88 34 Z M 88 32 L 89 31 L 90 32 L 89 33 Z M 89 31 L 90 30 L 91 31 L 90 32 Z M 90 30 L 91 29 L 92 30 L 91 31 Z M 91 29 L 92 28 L 93 29 L 92 30 Z M 94 26 L 95 25 L 96 26 L 95 27 Z M 148 21 L 149 20 L 150 21 L 149 22 Z M 147 20 L 148 19 L 149 20 L 148 21 Z M 146 19 L 147 18 L 148 19 L 147 20 Z M 144 17 L 145 16 L 146 17 L 145 18 Z M 143 16 L 144 15 L 145 16 L 144 17 Z" fill-rule="evenodd"/></svg>